<svg width="76" height="35" viewBox="0 0 76 35" fill="none" xmlns="http://www.w3.org/2000/svg">
<g filter="url(#filter0_d_46_135)">
<path d="M15.0542 0.582402C14.9076 0.964407 14.7872 2.25428 14.7872 3.44907V5.62142L12.9611 6.08007C11.6424 6.41125 10.5561 7.12525 9.05334 8.64876C7.04195 10.6871 6.87598 10.7674 4.15016 11.0166C0.689377 11.333 -0.00327498 11.8421 1.16136e-05 14.0685C0.00699562 19.3256 3.25415 22.8751 8.61006 23.4814C10.8347 23.733 10.902 23.7822 16.0106 28.8675C18.8462 31.6903 21.4438 34 21.7831 34C22.1225 34 24.647 31.7408 27.3934 28.979C32.9428 23.3986 33.6362 22.1296 32.8183 19.0526C32.0155 16.0323 29.6866 14.326 26.3663 14.326C24.9255 14.326 24.0271 14.5772 23.2305 15.2023L22.1143 16.0782L20.5515 15.2023C18.3733 13.9808 15.4265 14.0218 13.5412 15.2998C11.8991 16.4135 10.8659 18.071 11.2278 19.0121C11.6259 20.047 12.6904 19.758 14.1443 18.2198C16.1622 16.0851 17.7279 16.2323 21.4245 18.9047C21.9894 19.3133 22.3583 19.1748 23.5957 18.0911C25.2899 16.6069 27.3108 16.3589 28.9545 17.4336C30.2958 18.3108 30.9692 20.4114 30.3932 21.923C29.9125 23.1842 22.719 30.721 21.9959 30.721C21.7511 30.721 19.7052 28.863 17.4498 26.5923C12.888 21.9988 11.4965 21.1155 8.24484 20.7479C6.48446 20.5487 5.72895 20.2179 4.65013 19.1748C3.89873 18.4485 3.28373 17.6595 3.28291 17.4222C3.2825 17.1844 3.68757 16.2257 4.18344 15.2916C4.95661 13.8357 5.31566 13.5624 6.69768 13.3771C7.97945 13.2058 8.75057 12.7 10.4625 10.9084C12.321 8.96314 12.8892 8.61597 14.6253 8.36513C17.3516 7.97083 17.663 7.63145 17.663 5.05374C17.663 3.84132 17.8068 2.84943 17.9822 2.84943C18.8938 2.84943 20.1575 4.30777 20.57 5.83578C22.1332 11.6282 23.5061 13.8525 24.6614 12.4643C25.0763 11.9655 24.9629 11.174 24.0616 8.27167C22.6545 3.73967 22.0066 2.4748 20.466 1.24845C18.8552 -0.0336414 15.4523 -0.452125 15.0542 0.582402Z" fill="#C95119"/>
<path fill-rule="evenodd" clip-rule="evenodd" d="M30.6154 2.95189C30.4881 3.68434 30.341 6.12843 30.2888 8.38275L30.1931 12.4815L31.5283 12.6098C32.8088 12.7332 32.8635 12.6787 32.8635 11.2777C32.8635 9.87593 32.9226 9.81732 34.333 9.81732C35.4093 9.81732 36.1238 9.4968 37.0033 8.61925C38.0152 7.60973 38.2042 7.09369 38.2042 5.34024C38.2042 2.30634 37.3735 1.6198 33.7036 1.6198H30.8467L30.6154 2.95189ZM34.1987 7.28428C33.37 7.40151 33.2743 7.24248 33.2743 5.74725C33.2743 4.23071 33.37 4.07905 34.326 4.07905C35.2906 4.07905 35.3674 4.20693 35.2504 5.61609C35.1481 6.85064 34.941 7.17895 34.1987 7.28428Z" fill="#349DF2"/>
<path fill-rule="evenodd" clip-rule="evenodd" d="M40.1889 4.5914C39.2058 5.38164 38.9963 6.45019 39.6889 7.14124C40.5274 7.97779 40.9637 7.93107 41.4908 6.94819C42.0175 5.96612 42.9496 5.87759 43.2955 6.77686C43.6628 7.73146 43.6349 7.76794 42.5445 7.76794C39.8454 7.76794 37.7116 9.84724 38.5427 11.6671C39.1479 12.9922 40.792 13.3787 42.1222 12.5094C43.0556 11.8991 43.2208 11.8946 43.7918 12.4643C44.5995 13.2701 45.3698 13.2664 46.1861 12.4524C46.9206 11.7191 47.0266 10.8059 46.4207 10.4321C46.1947 10.2928 46.0098 9.11151 46.0098 7.80729C46.0098 6.03047 45.8217 5.26564 45.2584 4.7574C44.36 3.94584 41.1235 3.8401 40.1889 4.5914ZM41.635 10.4625C40.9021 10.1792 40.9033 10.1477 41.672 9.58328C42.9891 8.61597 43.5548 8.92952 42.7586 10.1846C42.531 10.5424 42.1111 10.6465 41.635 10.4625Z" fill="#349DF2"/>
<path d="M47.8524 7.91426C47.6922 10.0489 47.6848 11.9962 47.8368 12.2413C47.9884 12.486 48.5602 12.6864 49.1075 12.6864C50.3765 12.6864 50.6033 11.8163 50.4455 7.56177C50.326 4.35572 50.2997 4.28112 49.234 4.15816L48.1441 4.03233L47.8524 7.91426Z" fill="#349DF2"/>
<path d="M48.7081 1.34354C47.5767 2.16903 48.1507 3.3507 49.6021 3.18429C50.4993 3.08142 50.7343 2.84287 50.7343 2.03541C50.7343 0.839804 49.8248 0.529116 48.7081 1.34354Z" fill="#349DF2"/>
<path d="M53.0855 4.71723C52.4056 5.19228 52.1722 5.7661 52.1722 6.96294C52.1722 8.4262 52.3201 8.6463 53.8155 9.40744C55.8943 10.4653 55.8992 10.8039 53.8315 10.5272C50.7405 10.1137 50.5963 12.3003 53.6766 12.8766C57.6801 13.6263 59.6213 9.81445 56.174 7.97288C55.3298 7.52201 54.6388 6.92277 54.6384 6.64078C54.6367 5.9194 55.7328 6.00096 56.0183 6.74325C56.3232 7.53677 57.2689 7.53062 57.934 6.73095C58.3325 6.25181 58.3465 5.8657 57.9928 5.09145C57.6058 4.24341 57.2438 4.07905 55.7645 4.07905C54.7933 4.07905 53.5875 4.36638 53.0855 4.71723Z" fill="#349DF2"/>
<path fill-rule="evenodd" clip-rule="evenodd" d="M64.9078 2.83016C64.9078 4.41146 64.8506 4.49016 63.8807 4.24751C61.2202 3.58106 59.1603 5.65749 59.1579 9.00863C59.1558 11.5843 60.0169 12.6864 62.0312 12.6864C62.9087 12.6864 63.7385 12.5057 63.8754 12.2848C64.0339 12.0294 64.3963 12.0528 64.8724 12.3495C66.4902 13.3578 66.8604 12.6037 67.1693 7.66711C67.5337 1.85384 67.4618 1.4497 66.0338 1.28534C64.969 1.16238 64.9078 1.2464 64.9078 2.83016ZM62.108 8.86641C62.0369 8.00526 62.2049 7.02934 62.4814 6.69693C63.5003 5.47181 64.2915 6.21082 64.2915 8.38849C64.2915 10.2952 64.2225 10.4321 63.2645 10.4321C62.3709 10.4321 62.2206 10.2288 62.108 8.86641Z" fill="#FDEE02"/>
<path fill-rule="evenodd" clip-rule="evenodd" d="M70.7045 4.65124C69.3073 5.42386 68.6364 6.85514 68.6195 9.10003C68.599 11.8519 69.5842 12.7692 72.3839 12.6049C74.6866 12.4692 75.8225 11.5257 74.8509 10.5563C74.4393 10.1456 74.1718 10.1452 73.5153 10.5543C72.9184 10.926 72.4731 10.9473 71.8823 10.6322C70.6305 9.96365 70.9091 9.50663 72.757 9.19513C74.7396 8.86108 76 7.7581 76 6.35673C76 4.40695 72.9324 3.41915 70.7045 4.65124ZM72.2718 7.98271C71.1494 8.33808 70.9004 8.03026 71.462 6.98343C71.7143 6.51331 72.1917 6.12843 72.5224 6.12843C73.4484 6.12843 73.2388 7.67654 72.2718 7.98271Z" fill="#FDEE02"/>
<path d="M56.2804 15.7646C56.2804 16.1048 55.9107 16.6991 55.4588 17.0852C54.5784 17.8374 54.3294 19.6543 55.1063 19.6543C55.4333 19.6543 55.4999 20.3794 55.3257 22.0419C55.1379 23.8343 55.2316 24.652 55.7012 25.3209C56.8104 26.9009 59.567 26.1915 59.567 24.3257C59.567 23.4744 59.4196 23.3346 58.7454 23.5482C57.8387 23.8355 57.7857 23.6158 58.1838 21.2135C58.3719 20.0794 58.655 19.667 59.309 19.574C60.5226 19.401 60.8287 17.1951 59.6389 17.1951C59.1233 17.1951 58.7417 16.827 58.5765 16.1704C58.3884 15.422 58.0441 15.1457 57.2997 15.1457C56.6646 15.1457 56.2804 15.3789 56.2804 15.7646Z" fill="#349DF2"/>
<path fill-rule="evenodd" clip-rule="evenodd" d="M15.0658 12.4528C14.3789 12.1897 14.1299 11.0195 14.6504 10.5006C15.1705 9.98127 16.3434 10.2297 16.6072 10.915C16.7526 11.2929 16.6203 11.8532 16.313 12.1594C16.0061 12.4659 15.4445 12.5979 15.0658 12.4528Z" fill="#C95119"/>
<path fill-rule="evenodd" clip-rule="evenodd" d="M38.4269 15.1182C38.2966 15.3285 38.0735 17.7898 37.9314 20.588C37.6738 25.6615 37.6755 25.6762 38.6261 25.9242C39.9034 26.2574 40.179 26.0259 40.4929 24.3573C40.6396 23.5781 40.9275 23.0444 41.1329 23.1711C41.3388 23.2977 42.1645 23.185 42.9685 22.9202C45.8488 21.9718 47.0377 17.7734 45.0013 15.7421C44.1381 14.8805 43.6098 14.7358 41.3281 14.7358C39.8627 14.7358 38.5571 14.908 38.4269 15.1182ZM42.4924 20.236C41.2274 21.498 40.3064 20.3323 40.8528 18.1608C41.0442 17.3992 41.3388 17.1746 42.0187 17.2709C43.1764 17.4353 43.4685 19.2621 42.4924 20.236Z" fill="#349DF2"/>
<path fill-rule="evenodd" clip-rule="evenodd" d="M48.5639 17.8349C46.4946 19.2809 45.7136 23.201 47.1437 24.9631C48.1338 26.1828 50.9759 26.5517 52.369 25.641C54.2009 24.4433 53.2794 22.7231 51.3563 23.7498C50.6891 24.106 50.3338 24.1015 49.8864 23.7314C48.9965 22.9944 49.1748 22.5235 50.344 22.5235C51.8793 22.5235 53.6742 21.4643 53.963 20.388C54.3307 19.019 54.306 18.9141 53.4047 18.0148C52.4002 17.0127 49.8745 16.9188 48.5639 17.8349ZM49.4571 21.1807C49.3581 21.0819 49.3938 20.6983 49.5359 20.3278C49.8194 19.5912 50.7495 19.4256 51.1324 20.0437C51.376 20.4368 49.7902 21.5131 49.4571 21.1807Z" fill="#349DF2"/>
</g>
<defs>
<filter id="filter0_d_46_135" x="0" y="0" width="76" height="35" filterUnits="userSpaceOnUse" color-interpolation-filters="sRGB">
<feFlood flood-opacity="0" result="BackgroundImageFix"/>
<feColorMatrix in="SourceAlpha" type="matrix" values="0 0 0 0 0 0 0 0 0 0 0 0 0 0 0 0 0 0 127 0" result="hardAlpha"/>
<feOffset dy="1"/>
<feComposite in2="hardAlpha" operator="out"/>
<feColorMatrix type="matrix" values="0 0 0 0 1 0 0 0 0 1 0 0 0 0 1 0 0 0 0.5 0"/>
<feBlend mode="normal" in2="BackgroundImageFix" result="effect1_dropShadow_46_135"/>
<feBlend mode="normal" in="SourceGraphic" in2="effect1_dropShadow_46_135" result="shape"/>
</filter>
</defs>
</svg>
