<svg width="646" height="648" viewBox="0 0 646 648" fill="none" xmlns="http://www.w3.org/2000/svg">
<path d="M322.209 95.1676C320.404 92.1069 318.79 88.9634 318.09 85.451C317.112 80.5449 318.301 75.7569 321.034 71.613C324.857 65.8192 331.421 61.6972 338.196 60.366C345.311 58.9672 353.188 60.1134 359.193 64.3287C365.105 68.4786 366.577 73.9882 367.716 80.7058C371.086 81.0575 374.199 81.4882 377.075 83.4358C380.707 85.8952 382.642 90.0616 383.263 94.3009C384.291 101.313 381.67 107.989 377.602 113.594C376.114 113.679 374.624 113.719 373.133 113.712C364.637 113.603 356.369 106.926 352.573 99.6294C350.718 96.0643 349.673 91.9866 346.694 89.1243C344.495 87.0121 341.707 85.7787 338.636 85.9065C334.262 86.0884 329.906 88.4907 326.978 91.6672C321.433 97.6841 319.068 108.985 319.46 116.986C319.743 122.757 321.469 128.819 325.983 132.729C331.219 137.264 339.879 139.189 346.676 138.664C352.283 138.231 358.962 136.172 362.728 131.803L362.03 130.55C361.728 130.02 361.235 129.351 361.081 128.764C360.824 127.783 360.98 127.513 361.439 126.716C361.443 126.708 361.447 126.701 361.452 126.694L361.964 126.566C362.376 126.921 362.802 127.269 363.205 127.635C363.781 128.158 364.349 128.793 365.021 129.194C365.998 129.778 367.642 129.649 368.671 129.281C370.356 128.679 371.671 127.267 372.421 125.671C373.168 124.082 373.671 121.418 372.85 119.76C370.942 115.91 366.679 120.419 364.155 119.405C364.119 118.487 364.307 118.279 364.758 117.461C365.811 116.812 366.91 116.394 368.131 116.161C369.724 115.858 371.498 116.235 372.784 117.238C373.643 117.907 374.273 118.783 374.685 119.76C375.005 120.519 375.192 121.338 375.253 122.169C375.428 124.581 374.558 127.116 372.882 128.869C370.703 131.149 368.287 131.596 365.254 131.667C364.025 133.225 362.734 134.573 361.307 135.943C362.054 144.274 362.716 152.611 363.293 160.955C368.138 160.098 377.854 162.353 382.824 163.182C411.503 167.965 440.743 177.196 466.17 191.453C474.536 196.145 482.556 201.531 490.407 207.03C510.679 221.232 528.894 240.123 543.436 260.102C547.283 265.387 550.374 271.139 554.152 276.431C560.213 276.113 566.163 275.841 572.216 276.535C588.726 278.427 605.32 286.912 617.592 297.921C635.157 313.679 644.733 337.709 645.902 360.973C646.991 382.652 638.936 406.654 624.226 422.812C622.25 424.982 611.061 434.641 610.52 435.812C610.309 437.652 610.337 441.214 609.361 442.762L609.196 444.579C606.154 463.705 599.829 482.588 592.194 500.329C591.55 501.862 590.893 503.389 590.224 504.911C589.554 506.433 588.871 507.948 588.175 509.459C587.479 510.969 586.771 512.472 586.049 513.97C585.328 515.468 584.594 516.96 583.847 518.446C583.1 519.931 582.341 521.41 581.569 522.882C580.796 524.355 580.012 525.82 579.214 527.279C578.417 528.738 577.607 530.19 576.785 531.635C575.963 533.08 575.129 534.518 574.282 535.949C573.436 537.38 572.577 538.803 571.706 540.219C570.835 541.636 569.952 543.045 569.057 544.446C568.162 545.847 567.255 547.24 566.336 548.626C565.417 550.012 564.487 551.389 563.544 552.759C562.602 554.129 561.648 555.49 560.682 556.844C559.717 558.197 558.74 559.542 557.751 560.879C556.762 562.216 555.762 563.544 554.751 564.863C553.739 566.183 552.717 567.493 551.684 568.796C550.65 570.098 549.605 571.391 548.549 572.675C547.493 573.959 546.426 575.235 545.349 576.501C544.271 577.767 543.182 579.024 542.083 580.271C540.984 581.519 539.875 582.757 538.754 583.985C537.634 585.214 536.504 586.432 535.362 587.641C534.221 588.851 533.07 590.05 531.908 591.24C530.747 592.429 529.575 593.609 528.393 594.778C527.212 595.948 526.02 597.107 524.819 598.256C523.617 599.405 522.406 600.544 521.184 601.672C519.964 602.801 518.733 603.919 517.493 605.026C516.253 606.133 515.003 607.23 513.745 608.316C512.486 609.402 511.218 610.477 509.94 611.542C508.663 612.606 507.377 613.659 506.081 614.702C504.787 615.744 503.483 616.775 502.17 617.795C500.857 618.816 499.535 619.824 498.205 620.822C496.875 621.819 495.536 622.805 494.19 623.78C488.816 627.712 483.311 631.451 477.674 634.997C472.038 638.543 466.284 641.887 460.413 645.028L465.366 645.408C476.402 645.504 487.472 645.437 498.508 645.33C503.861 645.277 509.477 644.775 514.79 645.212C516.188 645.327 517.129 645.414 518.192 646.333C516.768 647.186 514.94 647.331 513.3 647.363C492.624 647.771 471.856 647.366 451.172 647.355L317.251 647.254L180.877 647.601L138.018 647.472C132.85 647.45 127.653 647.671 122.492 647.553C120.928 647.517 119.512 647.577 118.406 646.416L118.135 646.681L118.4 646.962L118.221 646.528C119.66 645.579 121.696 645.358 123.388 645.243C128.369 644.905 133.717 645.326 138.741 645.342C151.267 645.465 163.794 645.508 176.321 645.473C169.041 640.713 161.231 636.825 153.969 631.968C104.368 598.796 69.2587 558.21 47.5554 502.184C44.4548 494.182 41.2693 486.321 38.9475 478.047C36.0962 467.738 33.8264 457.303 32.1382 446.742C31.3234 441.882 30.8769 436.955 29.9193 432.123C29.6292 431.117 29.5443 430.085 29.424 429.048C48.9813 428.515 68.6559 429.121 88.2184 429.352C89.8044 429.358 91.4889 429.247 93.0568 429.471C96.885 429.554 113.911 430.872 115.651 430.49C113.368 420.324 111.751 409.694 110.378 399.37C110.328 399.219 110.316 399.049 110.23 398.915C109.627 397.985 108.261 398.41 107.31 398.581C96.2799 400.565 86.0492 401.5 74.851 399.877C68.1267 398.902 61.7256 396.791 55.4749 394.171C39.1527 387.328 26.5241 377.509 15.9716 363.274C3.28325 346.158 -2.15626 323.49 1.01595 302.447C4.73815 277.757 18.286 256.508 38.3183 241.797C56.5061 228.441 80.4148 223.18 102.589 226.718C103.597 226.884 104.602 227.067 105.603 227.268C106.605 227.468 107.603 227.686 108.597 227.921C109.591 228.156 110.581 228.408 111.566 228.677C112.552 228.947 113.533 229.233 114.508 229.536C115.484 229.84 116.454 230.16 117.418 230.497C118.383 230.834 119.341 231.187 120.293 231.558C121.245 231.928 122.191 232.315 123.13 232.717C124.068 233.12 125 233.539 125.924 233.974C126.848 234.41 127.765 234.861 128.673 235.327C129.582 235.794 130.482 236.277 131.374 236.775C132.266 237.273 133.149 237.787 134.024 238.316C134.897 238.844 135.762 239.388 136.618 239.947C137.473 240.506 138.318 241.079 139.154 241.667C139.989 242.255 140.814 242.857 141.628 243.474C142.443 244.09 143.247 244.721 144.039 245.366C144.832 246.01 145.613 246.668 146.383 247.339C148.902 249.545 151.581 251.883 153.554 254.588C157.505 249.272 161.671 244.129 166.049 239.159C170.428 234.189 175.006 229.409 179.781 224.82C210.639 195.614 253.356 170.839 295.791 164.347C301.803 163.427 308.198 162.314 314.291 162.483C318.235 162.365 322.393 161.891 326.287 161.268C327.18 153.119 327.303 144.678 327.591 136.487C324.122 134.212 321.604 131.527 319.901 127.689C315.027 116.706 318.217 105.761 322.209 95.1676Z" fill="black"/>
<path d="M377.602 113.594C376.114 113.679 374.624 113.719 373.133 113.712C364.637 113.603 356.369 106.926 352.573 99.6294C350.718 96.0643 349.673 91.9866 346.694 89.1243C344.495 87.0121 341.707 85.7787 338.636 85.9065C334.262 86.0884 329.906 88.4907 326.978 91.6672C321.433 97.6841 319.068 108.985 319.46 116.986C319.743 122.757 321.469 128.819 325.983 132.729C331.219 137.264 339.879 139.189 346.676 138.664C352.283 138.231 358.962 136.172 362.728 131.803L362.03 130.55C361.728 130.02 361.235 129.351 361.081 128.764C360.824 127.783 360.98 127.513 361.439 126.716L361.452 126.694L361.964 126.566C362.376 126.921 362.802 127.269 363.205 127.635C363.781 128.158 364.349 128.793 365.021 129.194C365.998 129.778 367.642 129.649 368.671 129.281C370.356 128.679 371.671 127.267 372.421 125.671C373.168 124.082 373.671 121.418 372.85 119.76C370.942 115.91 366.679 120.419 364.155 119.405C364.119 118.487 364.307 118.279 364.758 117.461C365.811 116.812 366.91 116.394 368.131 116.161C369.724 115.858 371.498 116.235 372.784 117.238C373.643 117.907 374.273 118.783 374.685 119.76L377.602 113.594Z" fill="white"/>
<path d="M324.776 105.252C325.402 105.545 325.259 105.398 325.728 105.972C326.226 106.584 326.73 107.349 326.573 108.166C326.285 109.659 325.185 110.474 323.987 111.267L322.944 110.248C322.895 109.337 322.758 108.283 322.839 107.379C322.95 106.156 323.855 105.89 324.776 105.252Z" fill="black"/>
<path d="M325.473 99.9937C327.703 100.094 332.918 101.686 334.672 103.098C335.271 103.581 335.112 104.038 335.195 104.768C332.722 104.727 328.971 103.557 326.821 102.282C325.747 101.644 325.743 101.18 325.473 99.9937Z" fill="black"/>
<path d="M344.895 108.404C345.874 108.379 346.881 108.335 347.858 108.413C348.922 108.497 349.818 109.145 350.457 109.97C350.832 110.453 351.339 111.06 351.258 111.672C351.076 111.744 350.903 111.843 350.712 111.887C350.103 112.029 348.907 111.804 348.369 111.516C348.229 111.44 348.106 111.333 347.971 111.249C347.838 111.166 347.7 111.093 347.566 111.013L347.278 110.841L347.447 111.155C348.023 112.393 348.371 113.234 347.926 114.593L347.291 114.868C346.985 114.717 346.906 114.705 346.639 114.418C346.046 113.779 345.673 112.78 345.641 111.924C345.608 111.003 345.693 111.358 345.423 110.525C345.188 109.798 345.04 109.154 344.895 108.404Z" fill="black"/>
<path d="M329.862 120.233C330.86 120.817 331.786 121.657 332.697 122.376C334.696 122.548 337.472 122.242 339.242 123.064L339.398 123.751L338.593 124.902C337 125.804 335.124 126.39 333.284 126.121C332.067 125.942 330.983 125.423 330.304 124.356C329.438 122.994 329.6 121.734 329.862 120.233Z" fill="black"/>
<path d="M521.696 95.7772C530.881 95.2413 540.244 97.6811 547.517 103.452C548.014 103.845 548.501 104.251 548.978 104.669C549.455 105.087 549.921 105.516 550.377 105.957C550.833 106.397 551.278 106.849 551.712 107.311C552.146 107.774 552.569 108.247 552.98 108.73C553.39 109.213 553.789 109.706 554.176 110.208C554.563 110.711 554.937 111.222 555.299 111.743C555.66 112.264 556.009 112.794 556.345 113.332C556.681 113.87 557.003 114.415 557.312 114.969C557.621 115.523 557.917 116.084 558.198 116.652C558.48 117.22 558.747 117.795 559.001 118.376C559.255 118.958 559.494 119.545 559.718 120.138C559.943 120.731 560.153 121.329 560.349 121.933C560.544 122.536 560.725 123.144 560.89 123.756C561.056 124.368 561.207 124.984 561.342 125.604C561.478 126.223 561.598 126.845 561.703 127.471C561.808 128.096 561.898 128.724 561.972 129.354C562.047 130.002 562.104 130.651 562.146 131.302C562.188 131.953 562.214 132.604 562.223 133.256C562.233 133.908 562.226 134.56 562.204 135.212C562.181 135.864 562.142 136.515 562.087 137.165C562.033 137.815 561.962 138.463 561.875 139.109C561.788 139.755 561.685 140.399 561.566 141.04C561.448 141.682 561.313 142.32 561.163 142.954C561.012 143.589 560.847 144.22 560.665 144.846C560.484 145.472 560.287 146.094 560.074 146.71C559.862 147.327 559.635 147.938 559.393 148.543C559.15 149.149 558.893 149.748 558.62 150.341C558.348 150.933 558.061 151.519 557.761 152.097C557.46 152.676 557.144 153.247 556.814 153.809C556.485 154.372 556.142 154.927 555.785 155.473C555.429 156.019 555.059 156.555 554.675 157.083C554.292 157.611 553.896 158.128 553.487 158.637C547.002 166.604 537.816 171.257 527.674 172.329C517.217 172.518 507.514 170.477 499.273 163.657C491.326 157.079 486.874 147.836 485.984 137.623C485.056 126.985 488.212 117.25 495.084 109.098C502.011 100.882 511.123 96.7333 521.696 95.7772Z" fill="white"/>
<path d="M204.003 0.320298C204.114 0.303686 204.225 0.280536 204.338 0.270463C204.909 0.220253 205.48 0.177032 206.053 0.140803C206.624 0.104523 207.197 0.0752594 207.769 0.0530104C208.342 0.0307614 208.915 0.0155289 209.489 0.00731082C210.062 -0.000957381 210.635 -0.00221381 211.208 0.00354888C211.781 0.00931157 212.354 0.0220671 212.927 0.0418106C213.499 0.0616042 214.072 0.0883847 214.644 0.122159C215.216 0.155883 215.788 0.196627 216.359 0.244382C216.93 0.292087 217.501 0.346783 218.071 0.408468C218.641 0.470154 219.21 0.538807 219.778 0.614423C220.346 0.68999 220.913 0.772496 221.479 0.861943C222.045 0.95139 222.61 1.04775 223.174 1.15103C223.738 1.25426 224.3 1.36437 224.861 1.48138C225.422 1.59839 225.982 1.72224 226.54 1.85292C227.098 1.98361 227.655 2.12111 228.209 2.26543C228.764 2.4097 229.317 2.56073 229.867 2.71853C230.419 2.87632 230.968 3.04084 231.514 3.21206C232.061 3.38329 232.606 3.56116 233.149 3.74566C233.692 3.93022 234.232 4.12137 234.77 4.3191C235.308 4.51684 235.843 4.72114 236.376 4.932C236.909 5.14281 237.44 5.36012 237.967 5.58391C238.495 5.80771 239.02 6.03791 239.542 6.27453C240.064 6.51115 240.582 6.75414 241.099 7.00349C241.615 7.25279 242.128 7.50837 242.638 7.77025C243.148 8.03208 243.654 8.30012 244.158 8.57437C244.661 8.84858 245.161 9.12891 245.657 9.4154C246.153 9.70183 246.646 9.9943 247.136 10.2928C247.625 10.5913 248.111 10.8958 248.593 11.2061C249.074 11.5165 249.552 11.8327 250.026 12.1547C250.501 12.4768 250.971 12.8046 251.437 13.1381C251.903 13.4716 252.365 13.8107 252.822 14.1555C253.28 14.5002 253.734 14.8508 254.183 15.207C254.632 15.5628 255.077 15.9241 255.518 16.2909C255.98 16.6858 256.437 17.0864 256.889 17.4928C257.341 17.8987 257.789 18.3101 258.231 18.7271C258.673 19.1445 259.11 19.5671 259.542 19.9951C259.973 20.4225 260.4 20.8555 260.821 21.2939C261.243 21.7319 261.658 22.1751 262.068 22.6236C262.479 23.0721 262.884 23.5256 263.283 23.9841C263.682 24.4421 264.076 24.9052 264.464 25.3732C264.852 25.8412 265.234 26.314 265.61 26.7916C265.986 27.2691 266.357 27.7509 266.721 28.237C267.086 28.7236 267.444 29.2144 267.797 29.7095C268.149 30.2046 268.495 30.7042 268.835 31.2083C269.176 31.7119 269.51 32.2195 269.838 32.7311C270.166 33.2433 270.487 33.7591 270.803 34.2788C271.118 34.7984 271.426 35.3221 271.729 35.8498C272.031 36.3769 272.327 36.9078 272.616 37.4425C272.905 37.9767 273.188 38.5146 273.464 39.0563C273.74 39.598 274.01 40.1427 274.273 40.6904C274.535 41.2386 274.792 41.7901 275.041 42.3448C275.29 42.899 275.533 43.4562 275.769 44.0165C276.004 44.5767 276.233 45.1397 276.455 45.7055C276.676 46.2717 276.891 46.8405 277.099 47.4117C277.307 47.9825 277.508 48.556 277.702 49.1322C277.896 49.7085 278.083 50.287 278.262 50.8678C278.442 51.4481 278.614 52.0309 278.78 52.6162C278.945 53.201 279.104 53.7877 279.255 54.3765C279.406 54.9653 279.55 55.5559 279.686 56.1482C279.823 56.7405 279.952 57.3343 280.074 57.9296C280.196 58.5249 280.311 59.1217 280.418 59.7201C280.526 60.3184 280.626 60.9179 280.718 61.5188C280.811 62.1196 280.896 62.7214 280.975 63.3242C281.052 63.9271 281.123 64.5306 281.186 65.135C281.249 65.7398 281.305 66.3451 281.354 66.951C282.852 85.7506 276.648 106.239 264.261 120.528C263.884 120.97 263.501 121.407 263.113 121.84C262.725 122.272 262.332 122.699 261.933 123.122C261.535 123.545 261.131 123.963 260.722 124.376C260.314 124.789 259.9 125.196 259.481 125.599C259.062 126.002 258.638 126.399 258.21 126.792C257.782 127.184 257.348 127.571 256.91 127.952C256.472 128.334 256.03 128.71 255.582 129.081C255.135 129.452 254.684 129.817 254.227 130.177C253.771 130.537 253.311 130.891 252.845 131.239C252.381 131.588 251.912 131.93 251.438 132.267C250.965 132.604 250.488 132.935 250.006 133.26C249.525 133.586 249.04 133.905 248.551 134.218C248.061 134.531 247.568 134.838 247.071 135.14C246.575 135.441 246.074 135.736 245.57 136.025C245.066 136.314 244.558 136.596 244.047 136.873C243.536 137.15 243.022 137.42 242.504 137.683C241.987 137.947 241.466 138.205 240.942 138.456C240.418 138.707 239.891 138.951 239.362 139.19C238.831 139.428 238.299 139.659 237.764 139.884C237.228 140.109 236.689 140.328 236.148 140.54C235.608 140.751 235.064 140.957 234.518 141.155C233.972 141.354 233.423 141.545 232.872 141.731C232.322 141.916 231.769 142.094 231.214 142.265C230.659 142.437 230.102 142.601 229.543 142.759C228.983 142.917 228.422 143.068 227.86 143.212C227.297 143.356 226.732 143.493 226.166 143.624C225.6 143.754 225.032 143.877 224.463 143.993C223.894 144.11 223.323 144.219 222.751 144.321C222.18 144.423 221.607 144.518 221.032 144.607C220.458 144.695 219.883 144.776 219.307 144.85C218.73 144.924 218.153 144.991 217.576 145.051C216.998 145.111 216.419 145.164 215.84 145.21C196.637 146.584 179.691 142.714 164.442 130.482C163.977 130.112 163.517 129.736 163.061 129.355C162.606 128.973 162.155 128.586 161.709 128.193C161.263 127.8 160.823 127.402 160.387 126.998C159.951 126.594 159.52 126.185 159.094 125.77C158.668 125.355 158.248 124.935 157.833 124.51C157.417 124.086 157.007 123.655 156.603 123.22C156.198 122.785 155.799 122.345 155.405 121.899C155.012 121.454 154.623 121.004 154.241 120.549C153.859 120.094 153.482 119.635 153.111 119.171C152.74 118.706 152.375 118.237 152.015 117.764C151.657 117.291 151.303 116.813 150.956 116.331C150.608 115.849 150.267 115.363 149.932 114.872C149.597 114.381 149.267 113.886 148.944 113.387C148.621 112.888 148.305 112.386 147.995 111.879C147.684 111.372 147.38 110.862 147.082 110.348C146.785 109.833 146.493 109.315 146.208 108.793C145.924 108.272 145.645 107.747 145.374 107.219C145.102 106.69 144.837 106.158 144.579 105.623C144.32 105.088 144.068 104.55 143.823 104.008C143.578 103.467 143.34 102.923 143.108 102.376C142.877 101.828 142.652 101.278 142.434 100.725C142.216 100.172 142.005 99.6169 141.801 99.0587C141.597 98.5004 141.4 97.9397 141.21 97.3765C141.021 96.8137 140.838 96.2485 140.662 95.6807C140.486 95.113 140.317 94.5432 140.155 93.9715C139.993 93.3997 139.839 92.826 139.691 92.2502C139.544 91.6744 139.404 91.0971 139.27 90.5184C139.137 89.9391 139.011 89.3583 138.893 88.776C138.774 88.1937 138.663 87.61 138.559 87.0247C138.455 86.4399 138.358 85.8536 138.268 85.2658C138.179 84.6785 138.097 84.09 138.022 83.5002C137.947 82.9109 137.88 82.3206 137.82 81.7293C135.756 62.4162 141.165 42.2516 153.457 27.0697C166.121 11.4286 184.094 2.32797 204.003 0.320298Z" fill="#DA0000"/>
<path d="M205.74 30.4295C210.346 30.319 214.962 30.1574 219.57 30.1424C220.735 30.1386 224.117 30.0266 224.803 30.9166C226.8 33.5038 225.845 53.8466 225.816 58.1355C231.782 58.0318 247.494 57.0336 252.285 59.0172C252.713 59.5704 252.875 60.0673 253.02 60.743C253.621 63.5347 253.495 82.2539 253.069 85.4529C252.924 86.5428 252.646 87.323 252.073 88.2536C250.212 89.6404 229.963 89.0045 225.798 89.0233C225.746 94.6562 226.89 112.563 224.512 116.786C221.996 118.318 215.801 117.462 212.835 117.407C209.149 117.344 205.461 117.514 201.775 117.533C199.919 117.543 197.311 117.827 195.991 116.312C193.403 113.342 194.994 93.8061 195.057 88.9286C190.356 89.0864 169.432 90.0064 166.373 88.231C166.11 87.6921 165.956 87.2103 165.88 86.6127C165.329 82.2772 165.387 64.7433 165.877 60.6355C165.99 59.6907 166.168 59.4118 166.724 58.676C170.904 57.1268 189.318 58.0506 194.996 58.0919C195.06 53.6444 194.147 33.0235 196.363 30.9076C197.448 29.8703 204.05 30.41 205.74 30.4295Z" fill="#FEFEFE"/>
<path d="M353.727 372.878C357.203 373.496 360.657 373.988 364.169 374.361C363.532 375.133 362.143 376.512 361.882 377.462C361.531 378.739 362.182 379.932 361.799 381.219C361.083 383.619 358.228 385.814 358.037 388.392C357.843 391.015 359.936 393.338 361.525 395.215L361.692 395.56C361.45 395.734 361.212 395.916 360.963 396.081C358.762 397.54 358.522 398.944 357.89 401.35C356.852 400.287 355.856 399.175 354.843 398.087C354.735 389.716 354.043 381.259 353.727 372.878Z" fill="#E16349"/>
<path d="M339.185 556.65L340.73 556.909C340.872 557.096 341.07 557.251 341.153 557.47C341.668 558.845 341.034 637.427 341.137 645.204C340.209 645.203 339.577 645.269 338.744 644.801C338.258 640.79 338.581 636.534 338.605 632.482L338.6 612.81C338.588 594.853 337.942 576.678 338.571 558.747C338.601 557.886 338.687 557.378 339.185 556.65Z" fill="#668CC3"/>
<path d="M429.826 411.776L430.579 411.934C431.925 415.627 431.15 430.498 431.134 435.243C427.745 433.186 425.19 430.521 422.548 427.597C419.234 423.772 415.841 419.94 412.969 415.767C418.566 414.344 424.185 413.013 429.826 411.776Z" fill="#FEFEFE"/>
<path d="M354.466 294.881C356.613 294.661 358.763 294.575 360.71 295.661C363.287 297.097 364.08 299.742 364.789 302.394C364.634 302.979 364.483 303.563 364.301 304.141C362.721 309.153 353.226 327.51 350.119 331.445C348.938 332.942 347.708 333.903 346.031 334.788C344.534 334.848 342.949 334.831 341.512 334.363C339.299 333.641 337.536 332.197 336.584 330.05C335.16 326.836 335.981 323.394 337.186 320.258C340.036 312.849 347.011 298.137 354.466 294.881Z" fill="#E16349"/>
<path d="M359.211 137L359.497 137.415C360.01 143.876 362.945 172.927 360.992 177.358C360.221 178.031 359.53 178.327 358.552 178.568C350.99 180.429 336.86 181.237 329.961 177.023C328.813 175.68 328.312 174.677 328.038 172.928C327.218 167.694 328.192 161.783 328.559 156.527C328.99 150.09 329.363 143.65 329.677 137.206C331.12 137.904 332.597 138.564 334.106 139.105C342.686 142.185 351.181 140.839 359.211 137Z" fill="#FEFEFE"/>
<path d="M306.432 209.814L306.801 209.918L306.913 210.479C305.742 213.492 304.05 217.65 304.113 220.91C304.174 224.052 305.337 227.529 306.096 230.579C308.371 239.724 310.673 250.135 308 259.447C306.923 263.202 304.91 266.691 301.351 268.553C296.176 271.261 289.171 270.355 283.839 268.595C281.005 267.312 278.414 265.616 277.038 262.717C274.213 256.765 277.103 249.066 279.164 243.281C285.734 224.837 288.147 218.48 306.432 209.814Z" fill="#E16349"/>
<path d="M354.176 209.26C361.414 212.566 367.486 216.45 372.392 222.792C378.401 230.556 386.976 246.187 385.538 256.306C384.838 261.233 382.23 264.511 378.315 267.341C377.068 268.038 375.838 268.684 374.487 269.162C369.937 270.773 364.99 270.897 360.596 268.723C343.606 260.318 355.927 233.04 356.065 219.087C356.1 215.569 355.337 212.557 354.176 209.26Z" fill="#E16349"/>
<path d="M340.657 61.8856C346.729 61.5985 352.929 62.2111 358.026 65.8581C363.934 70.0869 364.96 75.8573 366.027 82.4952C369.549 83.0612 373.533 83.4137 376.525 85.5026C379.335 87.4644 380.633 91.004 381.169 94.2639C381.924 98.855 381.107 105.304 378.199 109.123C377.066 110.612 375.668 111.495 373.79 111.673C368.803 112.146 363.238 108.445 359.538 105.434C352.947 99.1263 352.759 91.4775 347.736 87.269C347.551 87.1146 347.362 86.9651 347.169 86.8202C346.977 86.6754 346.781 86.5356 346.581 86.4008C346.381 86.2665 346.178 86.1372 345.971 86.013C345.765 85.8887 345.555 85.7697 345.343 85.6559C345.13 85.5427 344.915 85.4349 344.696 85.3327C344.479 85.23 344.258 85.1333 344.035 85.0426C343.812 84.9514 343.586 84.8662 343.359 84.787C343.131 84.7073 342.902 84.6337 342.671 84.566C342.439 84.4984 342.206 84.4367 341.972 84.3811C341.737 84.3255 341.501 84.2761 341.264 84.233C341.027 84.1895 340.79 84.1519 340.551 84.1203C340.312 84.0892 340.072 84.0642 339.832 84.0451C339.592 84.0261 339.351 84.0133 339.11 84.0068C338.87 84.0003 338.629 84 338.388 84.006C338.147 84.0116 337.906 84.0236 337.666 84.0421C337.426 84.0602 337.186 84.0845 336.947 84.115C331.411 84.8261 326.555 88.5055 323.272 92.8463C321.908 90.4222 320.673 87.9906 320.128 85.2373C319.211 80.6041 320.299 76.3925 322.929 72.5065C327.048 66.4233 333.606 63.2491 340.657 61.8856Z" fill="#FC9900"/>
<path d="M320.094 203.104C328.41 202.399 339.434 201.204 347.256 204.702C350.754 206.631 352.495 209.531 353.558 213.359C356.507 223.973 348.193 242.859 349.861 256.546C345.167 258.565 341.424 261.071 336.353 262.236C335.33 261.188 334.256 259.809 333.007 259.059L331.842 257.576C332.105 254.541 337.003 253.168 338.013 250.412C338.326 249.558 338.364 248.929 337.91 248.114C336.989 246.461 334.563 245.624 332.84 245.254C330.126 244.671 325.543 244.488 323.184 246.271C322.443 246.831 321.979 247.462 322.04 248.435C322.238 251.635 327.911 255.488 330.159 257.373L330.018 257.774C327.325 259.849 325.435 261.69 321.801 261.533C317.542 261.35 313.729 258.015 311.074 254.939C311.159 253.414 311.191 251.889 311.167 250.363C311.143 248.836 311.064 247.313 310.931 245.792C310.798 244.271 310.61 242.757 310.367 241.25C310.125 239.742 309.829 238.246 309.479 236.759C308.244 231.377 306.264 225.799 306.371 220.239C306.448 216.28 307.995 209.857 311.326 207.346C312.521 206.445 314.214 205.892 315.224 204.819C315.317 204.721 315.39 204.606 315.474 204.5C316.062 204.219 316.63 203.851 317.197 203.526L317.301 204.022C318.444 204.104 319.078 203.604 320.094 203.104Z" fill="#E16349"/>
<path d="M343.974 225.187C344.177 225.211 344.381 225.231 344.584 225.26C345.828 225.436 347.346 226.055 347.995 227.188C348.555 228.164 348.643 229.265 348.414 230.349C347.963 232.485 346.755 233.861 344.983 235.035C344.59 234.982 344.318 234.958 343.949 234.87C342.763 234.588 341.622 233.702 341.014 232.649C340.357 231.513 340.27 230.238 340.598 228.983C341.113 227.011 342.285 226.171 343.974 225.187Z" fill="black"/>
<path d="M317.163 224.879C317.838 224.861 318.557 224.825 319.223 224.96C320.408 225.202 321.482 226.025 322.143 227.024C322.961 228.26 323.191 229.732 322.861 231.17C322.452 232.947 321.589 233.964 320.103 234.956C318.222 234.797 317.027 234.503 315.688 233.103C314.773 232.145 314.348 230.949 314.392 229.628C314.463 227.472 315.654 226.261 317.163 224.879Z" fill="black"/>
<path d="M415.405 366.989C416.137 366.931 415.961 366.795 416.439 367.21C425.025 374.672 429.546 398.287 430.524 409.685C409.013 413.45 400.175 418.308 377.278 413.207C372.994 412.252 368.091 411.178 364.363 408.742C362.187 407.321 360.506 405.303 360.11 402.677C359.907 401.327 359.92 399.806 360.899 398.739C361.8 397.758 363.206 397.339 364.485 397.173C370.05 396.45 381.593 398.453 387.93 398.698C388.119 398.714 388.309 398.733 388.498 398.744C389.968 398.836 390.311 398.836 391.404 397.889L391.309 397.288C388.69 396.003 368.56 395.293 364.066 394.873C363.506 394.282 362.938 393.686 362.439 393.044C361.215 391.468 360.415 389.497 360.764 387.481C361.148 385.257 362.743 384.083 364.478 382.857C368.52 382.744 392.1 383.618 393.34 383.205C393.603 383.118 393.783 382.873 394.005 382.707L394.006 382.021C389.34 379.458 367.483 382.183 364.157 379.491C364.024 378.841 363.885 378.719 364.174 378.08C364.908 376.453 367.108 374.803 368.803 374.311C373.083 373.068 377.991 373.028 382.42 372.6C393.426 371.536 404.903 370.61 415.405 366.989Z" fill="#A1CAEB"/>
<path d="M446.546 345.225C449.408 345.741 452.335 345.84 455.234 345.955C456.913 348.428 460.214 357.174 462.217 358.134C462.806 358.417 462.62 358.348 463.257 358.149L463.408 357.8C463.028 354.014 459.496 349.189 457.641 345.869C464.334 346.372 470.909 347.434 477.518 348.576C477.253 378.801 471.019 394.56 451.085 417.377C445.579 423.381 439.977 428.989 433.347 433.778C433.04 427.773 433.226 421.718 433.019 415.703C432.568 402.603 430.383 387.791 424.44 376.04C422.531 372.264 420.097 368.879 417.648 365.444C429.279 360.483 438.77 355.546 446.546 345.225Z" fill="#FEFEFE"/>
<path d="M153.423 254.193C157.375 248.877 161.54 243.734 165.918 238.764C170.298 233.794 174.875 229.015 179.65 224.425C210.508 195.219 253.225 170.444 295.66 163.952C301.673 163.032 308.067 161.919 314.16 162.088C313.986 162.225 313.817 162.368 313.638 162.498C311.243 164.233 305.365 164.45 302.304 165.068C296.817 166.175 291.237 168.094 285.996 170.053C278.602 172.818 271.383 176.525 265.221 181.497C244.239 198.426 228.833 231.436 223.146 257.522C218.284 279.826 216.215 306.069 222.36 328.225C222.978 330.389 223.676 332.527 224.453 334.64C225.231 336.752 226.086 338.833 227.019 340.881C227.952 342.929 228.96 344.94 230.044 346.913C231.127 348.886 232.283 350.816 233.51 352.702C237.542 358.988 242.462 364.181 247.887 369.255C246.31 392.017 244.932 414.791 243.753 437.578L242.156 464.498C241.882 469.087 241.859 473.857 241.312 478.413C240.326 487.359 240.299 496.685 239.77 505.699C238.776 522.618 237.559 539.691 237.322 556.638C250.108 556.575 262.893 556.594 275.679 556.695C275.669 570.284 275.768 583.871 275.974 597.458C268.376 593.394 261.062 588.793 253.446 584.745C244.843 580.173 233.049 575.861 225.795 569.537C209.134 555.013 229.635 532.895 214.704 515.282C200.255 498.235 166.951 495.597 158.533 480.946C154.282 473.547 156.61 465.389 153.248 458.263C152.171 455.984 150.377 453.878 148.264 452.491C140.265 447.242 122.141 441.333 112.278 437.291C105.856 434.659 99.4631 431.31 92.926 429.077C96.7542 429.159 113.78 430.477 115.52 430.095C113.237 419.929 111.62 409.299 110.247 398.975C110.198 398.824 110.185 398.654 110.099 398.52C109.496 397.59 108.13 398.015 107.18 398.186C96.1491 400.17 85.9183 401.105 74.7202 399.482C67.9959 398.507 61.5948 396.396 55.344 393.776C39.0218 386.934 26.3933 377.114 15.8408 362.879C3.15239 345.763 -2.28712 323.095 0.885092 302.052C4.60729 277.363 18.1551 256.113 38.1875 241.403C56.3753 228.046 80.2839 222.786 102.458 226.324C103.466 226.49 104.471 226.673 105.473 226.873C106.474 227.074 107.472 227.291 108.466 227.526C109.461 227.761 110.45 228.013 111.435 228.282C112.421 228.552 113.402 228.838 114.377 229.142C115.353 229.445 116.323 229.765 117.287 230.102C118.252 230.439 119.21 230.792 120.162 231.163C121.114 231.533 122.06 231.92 122.999 232.323C123.938 232.725 124.869 233.144 125.794 233.579C126.718 234.015 127.634 234.466 128.542 234.932C129.451 235.399 130.352 235.882 131.243 236.38C132.135 236.879 133.018 237.392 133.893 237.921C134.767 238.45 135.631 238.993 136.487 239.552C137.342 240.111 138.187 240.684 139.023 241.272C139.858 241.86 140.683 242.462 141.497 243.079C142.312 243.696 143.116 244.326 143.908 244.971C144.701 245.615 145.482 246.273 146.252 246.945C148.771 249.15 151.45 251.488 153.423 254.193Z" fill="#FC9900"/>
<path d="M386.702 299.381C387.44 299.289 388.211 299.177 388.956 299.204C390.239 299.25 391.811 299.824 392.527 300.931C395.278 305.184 388.482 311.207 388.217 315.33C388.169 316.056 388.315 316.014 388.741 316.534C394.675 317.513 409.197 310.127 414.958 307.226C417.976 305.705 423.847 302.742 427.228 304.001C428.511 304.48 430.187 305.457 430.588 306.865C432.294 312.863 414.462 318.09 412.01 321.749C416.657 325.612 431.023 309.227 436.538 310.025C437.534 310.169 438.13 310.744 438.6 311.592C443.356 320.185 425.523 326.975 423.369 333.635L423.538 333.953C428.648 333.063 439.444 319.217 441.261 318.841C441.685 319.028 441.789 319.045 442.187 319.384C443.569 320.56 443.982 322.794 443.885 324.499C443.541 330.523 438.221 336.085 433.85 339.778C431.699 341.701 426.323 344.809 425.562 347.441C425.66 347.47 425.754 347.515 425.856 347.529C429.649 348.07 435.913 339.928 439.212 338.05C439.941 337.636 439.59 337.698 440.403 337.906C440.506 338.329 440.555 338.421 440.518 338.92C440.051 345.238 431.94 353.098 427.007 356.391C425.218 357.562 423.389 358.667 421.52 359.707C419.652 360.746 417.748 361.717 415.81 362.62C413.871 363.522 411.903 364.354 409.905 365.115C407.907 365.876 405.883 366.564 403.835 367.179C395.733 369.578 373.311 372.3 364.628 372.166C360.926 372.109 357.352 371.453 353.732 370.732C353.17 364.035 352.305 337.059 353.502 331.707C354.349 327.923 356.412 324.156 358.188 320.734C363.149 311.174 376.622 302.583 386.702 299.381Z" fill="#A1CAEB"/>
<path d="M387.977 253.342C393.738 255.645 399.114 258.734 404.528 261.743C421.174 270.994 438.21 282.116 446.04 300.294C450.71 311.136 452.867 325.708 448.325 336.923C445.263 344.482 440.442 350.118 433.987 354.975C432.228 356.299 430.285 357.825 428.214 358.621C427.757 358.796 427.317 358.89 426.837 358.985C427.192 358.19 429.415 357.171 430.224 356.599C435.676 352.743 441.589 345.903 442.606 339.117C442.866 337.381 442.626 335.54 442.471 333.799C444.492 330.903 446.745 326.311 446.22 322.707C445.881 320.385 444.62 318.468 442.706 317.149C442.213 316.814 441.713 316.491 441.205 316.18C441.221 314.241 441.486 311.469 440.076 309.946C438.378 308.111 434.743 308.932 433.249 307.837C431.43 306.505 431.125 301.471 425.917 301.674C418.333 301.968 411.516 307.091 404.737 309.981C400.112 311.917 395.364 313.481 390.493 314.671C392.684 311.079 396.065 306.228 394.982 301.804C394.579 300.16 393.447 298.627 391.967 297.795C389.776 296.562 387.133 296.983 384.85 297.703C376.595 300.305 370.871 306.018 363.548 310.112C365.317 306.502 367.041 302.783 365.687 298.697C364.866 296.22 362.999 294.468 360.638 293.436C359.384 292.887 357.914 292.557 356.555 292.409C348.162 294.395 345.9 299.848 341.692 306.665L340.426 308.72C332.509 309.291 324.459 308.925 316.528 308.841C312.948 308.789 309.242 308.626 305.687 309.072C297.907 310.049 294.784 313.333 290.194 319.17C288.117 321.811 285.085 323.796 281.682 324.097C279.763 324.267 277.664 323.839 276.221 322.486C274.569 320.939 273.776 318.565 273.703 316.345C273.596 313.052 275.204 310.045 277.42 307.706C287.931 296.61 302.524 297.912 316.386 297.712C316.508 292.88 317.991 287.813 318.501 282.973C319.209 276.253 318.162 269.385 317.489 262.691C319.774 263.218 321.979 263.461 324.313 263.646C324.557 263.91 324.804 264.171 325.054 264.428C326.68 266.093 328.594 267.473 331.026 267.414C333.486 267.354 335.114 265.872 336.701 264.164C342.763 263.341 345.218 260.678 350.578 259.153C351.266 260.879 352.043 262.58 353.029 264.16C355.794 268.588 359.49 270.799 364.466 271.948C370.638 272.464 376.278 271.754 381.243 267.649C385.863 263.829 387.161 258.988 387.977 253.342Z" fill="#E16349"/>
<path d="M363.438 163.525C376.925 166.337 388.825 171.781 399.687 180.303C445.443 216.2 470.816 290.439 477.429 346.229C467.529 344.598 457.605 343.807 447.6 343.239C450.542 336.699 452.619 331.014 452.76 323.745C453.076 307.328 446.452 292.844 435.248 281.117C422.847 268.546 404.031 257.991 387.743 251.189C385.763 243.91 382.78 237.236 379.571 230.441C383.745 225.977 388.731 220.091 391.465 214.632C386.692 211.094 381.586 208.012 377.152 204.028C380.864 197.052 385.927 190.601 389.214 183.469C386.151 180.746 381.42 177.146 377.565 175.835L377.078 176.172L377.162 177.13C378.41 179.308 384.618 182.454 386.842 183.958C382.921 191.007 378.206 197.649 374.599 204.869L388.715 215.363C385.574 219.866 382.495 224.664 378.65 228.593C373.076 220.158 369.296 215.444 360.3 210.529C356.991 208.722 353.557 207.024 350.634 204.616L350.218 204.269C356.467 195.674 362.487 185.644 363.481 174.84C363.823 171.119 363.548 167.259 363.438 163.525Z" fill="#FEFEFE"/>
<path d="M29.4243 429.048C48.9816 428.514 68.6562 429.121 88.2188 429.352C91.8876 431.937 96.4584 433.792 100.563 435.599C109.573 439.565 118.845 442.966 128.021 446.528C133.401 448.615 138.941 450.578 144.028 453.322C155.103 459.293 151.169 467.173 154.195 477.051C159.76 495.222 183.556 498.46 198.43 506.47C209.425 512.392 218.384 519.929 218.39 533.331C218.392 538.103 217.488 543.017 216.943 547.767C216.404 552.465 216.083 557.319 217.536 561.895C218.82 565.936 221.416 569.503 224.661 572.206C231.767 578.128 241.533 581.735 249.726 586.035C258.625 590.704 267.304 595.773 276.211 600.431L276.197 628.627C276.195 633.455 275.837 638.584 276.215 643.385C276.303 644.502 276.598 644.551 277.421 645.277L277.812 645.259C274.326 646.161 258.594 645.48 253.968 645.467C249.763 625.846 238.834 614.095 224.127 601.611C218.179 596.562 212.035 591.673 205.342 587.64C198.248 583.367 188.536 579.111 183.239 572.736C176.595 564.741 182.022 549.753 175.164 539.058C169.058 529.535 153.477 521.504 144.822 513.076C138.621 507.038 135.032 499.334 130.131 492.351C114.22 469.68 71.6906 446.694 46.4959 435.683C41.2884 433.407 35.0332 430.009 29.4243 429.048Z" fill="#A1CAEB"/>
<path d="M249.997 371.284C253.84 374.286 257.656 377.297 261.807 379.871C282.539 392.731 307.102 397.401 331.111 398.998L331.101 554.737L320.872 554.793L239.283 554.969C240.021 530.819 242.079 506.611 243.384 482.477C245.39 445.435 246.967 408.258 249.997 371.284Z" fill="#FEFEFE"/>
<path d="M332.986 399.075C339.432 399.216 345.874 399.462 352.312 399.816C352.396 399.88 352.482 399.944 352.566 400.009C352.705 400.12 352.841 400.233 352.981 400.343C356.407 403.033 358.689 406.81 362.049 409.457C369.473 415.304 386.149 417.404 395.342 417.456C400.502 417.485 405.618 416.904 410.721 416.214C415.719 422.782 423.689 434.277 431.151 437.604C433.385 452.939 434.852 468.497 436.464 483.911C438.789 507.557 441.406 531.171 444.313 554.752C440.468 555.371 435.948 554.953 432.037 554.918L409.721 554.747L333.038 554.708L332.986 399.075Z" fill="#FEFEFE"/>
<path d="M412.152 584.675C417.153 581.656 422.221 578.667 427.459 576.076C440.582 569.586 473.049 556.554 479.075 543.115C482.89 534.608 475.865 527.241 479.581 519.661C482.332 514.052 489.036 509.349 493.854 505.502C501.322 499.54 509.192 494.296 517.214 489.119C539.83 474.522 563.046 462.896 588.005 452.808C594.966 449.994 602.042 446.837 609.196 444.579C606.155 463.704 599.83 482.588 592.194 500.329C591.55 501.862 590.894 503.389 590.224 504.911C589.554 506.432 588.871 507.948 588.175 509.458C587.48 510.968 586.771 512.472 586.049 513.97C585.328 515.468 584.594 516.96 583.847 518.445C583.1 519.931 582.341 521.409 581.569 522.882C580.797 524.354 580.012 525.82 579.215 527.279C578.417 528.738 577.608 530.19 576.785 531.635C575.963 533.08 575.129 534.518 574.282 535.949C573.436 537.38 572.577 538.803 571.706 540.219C570.835 541.636 569.952 543.045 569.057 544.446C568.162 545.847 567.255 547.24 566.337 548.626C565.418 550.011 564.487 551.389 563.544 552.758C562.602 554.128 561.648 555.49 560.683 556.844C559.717 558.197 558.74 559.542 557.751 560.878C556.762 562.215 555.763 563.544 554.751 564.863C553.74 566.182 552.717 567.493 551.684 568.796C550.65 570.098 549.605 571.391 548.549 572.675C547.494 573.959 546.427 575.235 545.349 576.501C544.271 577.767 543.183 579.023 542.084 580.271C540.985 581.518 539.875 582.756 538.755 583.985C537.635 585.213 536.504 586.432 535.362 587.641C534.221 588.85 533.07 590.05 531.908 591.239C530.747 592.429 529.575 593.608 528.394 594.778C527.212 595.948 526.021 597.107 524.819 598.256C523.617 599.405 522.406 600.544 521.185 601.672C519.964 602.801 518.734 603.918 517.493 605.025C516.253 606.133 515.004 607.23 513.745 608.316C512.486 609.402 511.218 610.477 509.941 611.541C508.663 612.606 507.377 613.659 506.082 614.701C504.787 615.744 503.483 616.775 502.17 617.795C500.857 618.815 499.535 619.824 498.205 620.821C496.875 621.819 495.537 622.805 494.19 623.78C488.816 627.712 483.311 631.451 477.674 634.997C472.038 638.543 466.284 641.886 460.413 645.028L465.366 645.408C459.874 645.822 454.036 645.364 448.503 645.371L412.295 645.443L412.152 584.675Z" fill="#349DF2"/>
<path d="M352.588 397.354C315.369 397.865 274.169 392.368 246.328 365.219C227.841 347.193 220.981 323.395 220.683 298.204C220.245 261.161 234.412 215.478 260.829 188.717C278.166 171.153 302.744 166.611 326.192 163.504C325.861 167.759 324.758 174.381 327.73 177.912C330.545 181.256 335.793 181.753 339.882 181.956C346.894 182.304 353.749 181.55 360.66 180.458C357.69 189.588 353.391 197.349 347.256 204.701C339.434 201.203 328.41 202.398 320.094 203.103C319.078 203.603 318.444 204.104 317.301 204.021L317.197 203.526C316.63 203.85 316.062 204.218 315.474 204.499C305.709 206.73 291.459 214.192 285.989 222.855C281.961 229.232 275.076 246.275 273.804 253.866C273.446 256.006 273.45 258.145 273.949 260.263C274.899 264.287 277.56 267.477 281.123 269.492C286.16 272.341 293.361 273.315 298.919 271.65C303.221 270.361 306.713 267.238 308.716 263.241C309.635 261.405 310.215 259.486 310.763 257.519C312.324 258.972 313.828 260.441 315.657 261.562C315.696 266.791 316.339 271.986 316.388 277.206C316.447 283.506 315.455 289.674 314.213 295.826C298.941 295.985 290.598 296.002 275.738 290.387C272.846 289.295 266.089 283.803 263.546 284.525C263.523 285.421 263.656 285.731 264.316 286.368C269.76 291.617 284.718 295.741 292.284 297.544C285.129 299.52 276.852 303.116 273.132 310.025C271.629 312.819 270.998 316.314 272.072 319.364C272.926 321.792 274.824 323.923 277.153 325.024C279.758 326.257 282.616 326.59 285.327 325.505C289.717 323.75 292.017 319.258 295.336 316.167C297.321 314.318 300.026 312.358 302.66 311.629C309.061 309.856 331.559 310.867 339.246 311.163C336.656 316.411 332.209 323.729 334.186 329.696C335.055 332.314 336.955 334.305 339.404 335.527C341.838 336.742 345.047 337.078 347.622 336.109C348.811 335.662 349.967 334.859 350.981 334.103C350.771 355.228 352.483 376.261 352.588 397.354Z" fill="#FEFEFE"/>
<path d="M297.814 181.901C302.904 179.863 307.879 174.974 312.058 171.469C312.962 170.711 314.26 169.29 315.302 168.804C316.28 168.347 316.521 168.512 317.447 168.874L317.61 169.515C316.413 171.725 304.503 180.183 301.533 182.518C307.372 189.735 313.915 196.2 320.094 203.104C319.078 203.603 318.444 204.104 317.301 204.021L317.197 203.526C312.878 197.21 303.356 187.654 297.814 181.901Z" fill="black"/>
<path d="M29.9194 432.123C36.513 433.526 43.5176 437.086 49.6534 439.858C75.3765 451.479 114.366 472.724 130.078 496.899C134.348 503.467 138.009 510.006 143.747 515.491C152.423 523.786 167.078 531.344 173.234 540.969C179.866 551.34 173.444 565.269 181.819 574.777C187.591 581.329 197.003 585.489 204.367 589.989C215.126 596.564 231.114 609.599 239.055 619.425C242.677 623.907 245.485 628.713 247.65 634.051C248.668 636.561 251.071 641.348 250.606 643.963C250.499 644.561 250.456 644.596 250.246 645.092C249.24 645.487 183.153 645.985 176.321 645.473C169.041 640.713 161.231 636.825 153.969 631.968C104.369 598.796 69.2588 558.21 47.5555 502.184C44.4549 494.182 41.2694 486.321 38.9476 478.047C36.0963 467.738 33.8265 457.303 32.1383 446.742C31.3235 441.882 30.877 436.955 29.9194 432.123Z" fill="#349DF2"/>
<path d="M363.293 160.954C368.138 160.098 377.854 162.353 382.824 163.182C411.503 167.964 440.743 177.195 466.17 191.453C474.536 196.145 482.556 201.53 490.407 207.03C510.679 221.232 528.894 240.123 543.437 260.102C547.283 265.386 550.374 271.139 554.152 276.43C560.213 276.113 566.164 275.841 572.217 276.535C588.726 278.427 605.32 286.912 617.593 297.921C635.157 313.679 644.733 337.708 645.902 360.973C646.991 382.652 638.936 406.654 624.226 422.812C622.251 424.982 611.061 434.64 610.52 435.812C610.309 437.652 610.337 441.214 609.361 442.762L608.509 442.521C599.788 444.878 590.892 448.776 582.566 452.283C562.959 460.542 543.702 469.415 525.694 480.826C514.951 487.632 479.381 509.304 476.417 521.271C474.825 527.697 479.175 533.799 477.558 540.276C474.227 553.609 437.726 568.289 425.537 574.292C420.891 576.58 416.488 579.165 412.101 581.911C411.958 573.566 411.897 565.22 411.921 556.873C418.593 556.799 440.657 557.891 445.534 556.693C447.041 553.058 442.56 522.531 441.851 516.514C457.887 506.098 449.773 493.208 457.562 485.472C463.114 479.957 476.554 475.763 483.914 472.625C488.611 470.622 493.286 468.338 497.567 465.546C503.325 461.793 509.075 457.515 513.326 452.058C515.619 449.116 517.65 445.786 520.297 443.156C520.392 443.062 520.489 442.971 520.584 442.879C519.842 442.346 518.969 441.914 518.179 441.45L517.457 442.309C503.825 462.252 491.524 466.964 470.109 475.844C465.215 477.872 459.262 480.285 455.477 484.115C447.011 492.682 454.952 505.211 441.509 513.328C439.168 495.512 437.424 477.405 435.903 459.489C435.084 451.884 434.212 444.284 433.286 436.691C450.538 424.637 467.136 402.499 475.139 383.223C478.343 371.252 480.014 358.722 479.308 346.294C478.688 335.405 476.13 324.22 473.767 313.598C462.973 265.074 440.095 208.759 399.599 177.473C393.173 172.508 386.045 168.147 378.327 165.532C375.024 164.412 371.653 163.349 368.266 162.508C367.038 162.203 365.159 162.108 364.044 161.626C363.735 161.493 363.543 161.178 363.293 160.954Z" fill="#FDEE02"/>
<path d="M618.837 343.039C622.142 342.727 625.678 343.307 628.618 344.882C632.443 346.93 634.724 350.5 635.841 354.613C637.602 361.1 635.98 368.484 632.651 374.216C628.128 382.001 621.316 386.236 612.786 388.469C608.345 389.18 603.743 388.622 600.028 385.902C596.652 383.43 594.975 379.656 594.396 375.601C593.273 367.749 596.313 360.201 601.031 354.042C605.666 347.994 611.203 344.07 618.837 343.039Z" fill="#FEFEFE"/>
<path d="M498.69 327.231C503.593 326.736 508.296 328.438 512.16 331.395C518.724 336.419 522.798 344.053 523.802 352.211C524.562 358.38 523.757 365.716 519.706 370.679C517.034 373.952 513.652 375.352 509.538 375.761C505.364 375.746 501.622 374.783 498.089 372.526C491.102 368.064 486.172 359.91 484.5 351.887C483.276 346.016 483.72 339.396 487.175 334.325C489.94 330.266 493.981 328.146 498.69 327.231Z" fill="#FEFEFE"/>
<path d="M536.449 288.152C540.36 288.187 543.965 288.901 547.356 290.934C553.784 294.79 557.659 301.48 559.347 308.632C561.122 316.154 560.947 324.45 556.661 331.128C553.804 335.581 550.05 337.788 545.017 338.955C540.801 339.403 536.648 337.956 533.225 335.54C526.484 330.783 522.15 322.442 520.825 314.422C519.731 307.793 520.6 300.525 524.73 295.039C527.745 291.034 531.575 288.917 536.449 288.152Z" fill="#FEFEFE"/>
<path d="M592.539 293.807C595.811 293.416 599.447 294.424 602.211 296.17C606.234 298.709 608.688 302.99 609.585 307.591C611.158 315.659 608.754 325.124 604.114 331.827C599.832 338.014 593.526 342.293 586.12 343.638C582.211 343.81 578.476 342.896 575.278 340.56C571.32 337.669 569.269 333.222 568.602 328.459C567.449 320.244 570.536 311.004 575.509 304.496C579.859 298.806 585.326 294.762 592.539 293.807Z" fill="#FEFEFE"/>
<path d="M553.385 343.023C556.094 342.725 558.981 342.676 561.693 342.98C568.63 343.758 575.135 347.015 579.46 352.563C584.858 359.488 589.78 375.644 593.418 384.327C596.241 391.062 599.929 397.905 601.964 404.905C602.835 407.902 603.188 411.05 602.754 414.155C601.992 419.595 598.891 425.038 594.456 428.287C584.598 435.507 568.226 430.787 557.086 429.03C549.589 428.186 542.11 427.044 534.629 426.06C529.907 425.439 524.886 425.159 520.282 423.988C517.767 423.348 515.299 422.412 513.149 420.937C508.595 417.81 505.216 412.628 504.262 407.187C503.145 400.817 504.973 396.504 508.52 391.385C514.92 382.15 522.005 373.312 528.837 364.391C532.714 359.329 537.238 352.169 542.029 348.113C545.258 345.378 549.259 343.767 553.385 343.023Z" fill="#FEFEFE"/>
<path d="M149.033 284.813C152.664 284.866 155.725 285.592 158.612 287.918C162.535 291.08 164.727 295.974 165.32 300.901C166.318 309.187 163.854 317.269 158.655 323.753C154.384 329.079 149.424 332.099 142.54 332.835C138.602 332.696 135.366 331.89 132.184 329.385C128.027 326.114 125.716 320.955 125.182 315.771C124.39 308.077 127.598 299.729 132.465 293.849C136.865 288.533 142.108 285.514 149.033 284.813Z" fill="#FEFEFE"/>
<path d="M23.228 285.533C28.9864 284.975 33.9218 286.67 38.5226 290.053C45.3108 295.046 50.153 302.384 51.3218 310.782C52.1126 316.46 51.3639 322.576 47.7101 327.202C45.0748 330.538 41.7074 332.084 37.5974 332.637C33.6286 332.856 29.8448 331.891 26.3639 329.991C18.9691 325.956 13.0282 318.758 10.7227 310.643C9.09784 304.924 8.94412 298.8 12.0311 293.499C14.5509 289.173 18.4813 286.725 23.228 285.533Z" fill="#FEFEFE"/>
<path d="M56.062 241.89C60.5351 241.658 64.3467 242.392 68.2531 244.596C75.5719 248.724 80.8899 256.22 83.1163 264.242C84.7451 270.111 84.7113 277.092 81.5363 282.453C79.0559 286.642 75.3585 289.083 70.7057 290.268C66.4536 290.462 62.9516 289.926 59.1881 287.883C51.6325 283.784 45.9838 276.178 43.6687 267.952C42.0023 262.029 41.9835 254.958 45.2006 249.537C47.684 245.352 51.4213 243.009 56.062 241.89Z" fill="#FEFEFE"/>
<path d="M114.968 240.839C118.779 240.669 122.723 241.452 126.024 243.431C130.072 245.859 132.582 249.862 133.636 254.405C135.464 262.288 133.356 271.078 129.131 277.848C124.92 284.6 119.293 288.826 111.558 290.646C107.494 291.183 103.395 290.589 99.91 288.323C95.9645 285.757 93.7516 281.427 92.894 276.9C91.2817 268.384 94.023 258.402 98.9208 251.371C102.773 245.84 108.294 242.007 114.968 240.839Z" fill="#FEFEFE"/>
<path d="M84.7641 291.134C91.4576 290.496 97.894 292.033 103.231 296.236C111.278 302.572 133.175 338.707 138.055 348.96C139.543 352.086 141.043 355.638 141.375 359.117C141.803 363.614 140.634 367.939 137.617 371.354C131.095 378.741 120.754 377.969 111.82 378.275C106.361 378.426 100.906 378.646 95.4533 378.936C83.5336 379.156 57.4482 383.053 47.715 377.182C43.6996 374.76 40.4548 370.759 39.4295 366.13C36.816 354.338 55.9569 319.915 62.7098 309.519C68.5268 300.563 73.9169 293.41 84.7641 291.134Z" fill="#FEFEFE"/>
</svg>
