<svg width="35" height="36" viewBox="0 0 35 36" fill="none" xmlns="http://www.w3.org/2000/svg">
<path fill-rule="evenodd" clip-rule="evenodd" d="M29.7911 5.29835C26.513 2.03219 22.1534 0.232549 17.5087 0.230713C7.93844 0.230713 0.149415 7.9819 0.145585 17.5094C0.144309 20.5549 0.943869 23.5277 2.46322 26.1481L0 35.1025L9.20445 32.6996C11.7404 34.0762 14.5958 34.8017 17.5018 34.8029H17.5089C27.0782 34.8029 34.8679 27.0507 34.8718 17.5232C34.8736 12.906 33.0693 8.56451 29.7911 5.29835ZM17.5089 31.8844H17.503C14.9135 31.8834 12.3736 31.1911 10.1579 29.8825L9.63085 29.5712L4.16887 30.9972L5.6268 25.6973L5.28362 25.1539C3.83902 22.8672 3.07601 20.2242 3.07715 17.5105C3.08032 9.59161 9.55429 3.14915 17.5146 3.14915C21.3692 3.15061 24.9927 4.6465 27.7174 7.36122C30.4421 10.0759 31.9417 13.6844 31.9403 17.5221C31.937 25.4415 25.4631 31.8844 17.5089 31.8844ZM25.4248 21.1279C24.991 20.9118 22.858 19.8672 22.4603 19.7231C22.0627 19.579 21.7735 19.507 21.4842 19.9393C21.195 20.3715 20.3636 21.344 20.1104 21.6322C19.8574 21.9203 19.6044 21.9564 19.1705 21.7402C18.7367 21.5241 17.3388 21.0682 15.6816 19.5973C14.392 18.4525 13.5212 17.0384 13.2682 16.6062C13.0151 16.174 13.2413 15.9403 13.4584 15.725C13.6536 15.5316 13.8923 15.2208 14.1092 14.9686C14.3261 14.7165 14.3984 14.5364 14.543 14.2483C14.6876 13.9601 14.6153 13.7079 14.5068 13.4918C14.3984 13.2757 13.5308 11.1505 13.1692 10.2861C12.8171 9.44414 12.4594 9.55805 12.1931 9.54487C11.9403 9.53235 11.6508 9.52967 11.3616 9.52967C11.0724 9.52967 10.6024 9.63774 10.2047 10.07C9.80702 10.5022 8.68632 11.5468 8.68632 13.6719C8.68632 15.7971 10.2408 17.8501 10.4578 18.1383C10.6747 18.4265 13.517 22.7876 17.869 24.6578C18.9041 25.1027 19.7122 25.3683 20.3423 25.5674C21.3816 25.8959 22.3274 25.8495 23.0749 25.7384C23.9084 25.6145 25.6417 24.6939 26.0032 23.6853C26.3648 22.6768 26.3648 21.8123 26.2563 21.6322C26.1479 21.4521 25.8587 21.344 25.4248 21.1279Z" fill="#349DF2"/>
</svg>
